<?xml version="1.0" encoding="UTF-8" standalone="no"?>
<!-- Created with Inkscape (http://www.inkscape.org/) -->

<svg
   viewBox="0 0 8.1952248 7.3396041"
   version="1.1"
   id="svg1"
   xml:space="preserve"
   sodipodi:docname="goat.svg"
   inkscape:version="1.4.4 (dcaf3e7d9e, 2026-05-05)"
   xmlns:inkscape="http://www.inkscape.org/namespaces/inkscape"
   xmlns:sodipodi="http://sodipodi.sourceforge.net/DTD/sodipodi-0.dtd"
   xmlns="http://www.w3.org/2000/svg"
   xmlns:svg="http://www.w3.org/2000/svg">
  <defs
   id="defs1">
  </defs>
  <g
   inkscape:label="Layer 1"
   inkscape:groupmode="layer"
   id="layer1"
   transform="translate(-6.2770888,-6.8320726)"><path
   id="path5"
   style="baseline-shift:baseline;display:inline;overflow:visible;vector-effect:none;stroke-linecap:round;stroke-linejoin:round;enable-background:accumulate;stop-color:#000000;stop-opacity:1;fill:currentColor;fill-opacity:1"
   d="M 9.3630442,6.833767 C 9.0149862,6.8502674 8.7213145,7.0590588 8.515388,7.3200952 8.3502991,7.5293651 8.2871493,7.7832901 8.2478098,8.0310327 a 0.18878087,0.18878087 0 0 0 -0.03125,0.00586 L 6.406013,8.6423608 A 0.18878087,0.18878087 0 0 0 6.2771067,8.8240014 l 0.015625,0.890625 A 0.18878087,0.18878087 0 0 0 6.484138,9.9001733 l 0.091797,-0.00195 0.00977,0.4042967 a 0.18878087,0.18878087 0 0 0 0.2285156,0.179688 c 0,0 0.094877,-0.02011 0.2050781,-0.05664 0.1102009,-0.03653 0.2367736,-0.07354 0.3457032,-0.185547 0.072262,-0.0743 0.082355,-0.134227 0.099609,-0.199219 0.013996,-0.052717 0.021421,-0.1074316 0.029297,-0.1601559 l 0.1679688,-0.00391 0.060547,1.4785149 c 0.011395,0.278611 0.159448,0.527872 0.3710938,0.716797 l 0.013672,1.681641 a 0.18878087,0.18878087 0 0 0 0.1914063,0.1875 l 0.34375,-0.0078 v 0.05273 a 0.18878087,0.18878087 0 0 0 0.1914062,0.185547 l 0.5488282,-0.0078 A 0.18878087,0.18878087 0 0 0 9.568127,13.97246 L 9.554455,12.652147 v -0.002 l 0.00195,-0.002 v -0.002 c 1.671e-4,-3.53e-4 0.00156,-0.0046 0.00195,-0.0059 l 0.00195,-0.002 0.00195,-0.002 c 0.00127,-7.92e-4 0.00349,-0.0016 0.00391,-0.002 9.799e-4,-7.13e-4 0.00472,-0.0032 0.00586,-0.0039 0.00653,-0.003 0.015862,-0.0057 0.027344,-0.0059 l 2.759766,-0.03516 -0.0059,1.103516 a 0.18878087,0.18878087 0 0 0 0.185546,0.191406 l 0.34375,0.0059 0.002,0.08203 a 0.18878087,0.18878087 0 0 0 0.195312,0.185547 l 0.539063,-0.01563 a 0.18878087,0.18878087 0 0 0 0.183593,-0.191406 l -0.05078,-2.96875 c -0.0014,-0.07821 -0.04274,-0.148324 -0.05859,-0.22461 0.131962,0.02116 0.280333,0.04756 0.427735,-0.05469 0.297718,-0.206528 0.349609,-0.517578 0.349609,-0.517578 A 0.18878087,0.18878087 0 0 0 14.2732,9.9704858 c 0,0 -0.07275,0.0044 -0.164062,0.00391 -0.09132,-4.894e-4 -0.205682,-0.010082 -0.240234,-0.019531 -0.04124,-0.01128 -0.05099,-0.022244 -0.111329,-0.068359 -0.06034,-0.046115 -0.157248,-0.1111737 -0.30664,-0.15625 -0.177623,-0.053586 -0.426336,-0.062259 -0.667969,-0.070312 -0.241254,-0.00804 -0.458385,-0.00609 -0.490234,-0.00586 0.01015,-7.57e-5 -0.02857,-1.01e-5 -0.0332,0 h -2.15625 C 9.6536919,9.6542202 9.2742614,9.377039 9.171638,8.9997827 L 9.1286692,8.8396264 C 9.242809,8.8187027 9.3745927,8.7994698 9.4939036,8.6872827 9.5823977,8.6040726 9.6396069,8.5036753 9.6892161,8.4157983 9.7388254,8.3279212 9.7732005,8.2536889 9.7732005,8.2536889 A 0.18878087,0.18878087 0 0 0 9.5974192,7.9861108 l -0.4902344,0.015625 c 0.02608,-0.1133965 0.066996,-0.2372403 0.089844,-0.2636719 0.058608,-0.054289 0.1003399,-0.059505 0.1914062,-0.066406 0.091066,-0.0069 0.2275939,-0.00111 0.375,-0.078125 C 9.8789597,7.5331775 9.9486051,7.4300743 9.9802317,7.3396264 10.02903,7.2000727 9.9635608,7.0543614 9.8806223,6.974392 9.7981285,6.8948513 9.6944317,6.8491301 9.577888,6.8396264 h -0.00195 l -0.044922,-0.00391 a 0.18878087,0.18878087 0 0 0 -0.00195,0 C 9.4736878,6.8315339 9.418781,6.831047 9.3630442,6.833767 Z m 0.234375,0.4160157 c -3.902e-4,0.00104 -0.00155,0.00297 -0.00195,0.00391 v -0.00195 z M 12.55445,11.954861 a 0.18878087,0.18878087 0 0 1 0.05078,0.0078 0.18878087,0.18878087 0 0 0 -0.05078,-0.0078 z m 0.308594,0.667969 h 0.002 c 3.08e-4,0.0012 -1.59e-4,0.0028 0,0.0039 -1.59e-4,-0.0012 -0.0016,-0.0027 -0.002,-0.0039 z" />
  </g>
</svg>
