<?xml version="1.0" encoding="UTF-8" standalone="no"?>
<!-- Created with Inkscape (http://www.inkscape.org/) -->

<svg
   viewBox="0 0 6.691031 7.2128274"
   version="1.1"
   id="svg1"
   xml:space="preserve"
   sodipodi:docname="goat-head.svg"
   inkscape:version="1.4.4 (dcaf3e7d9e, 2026-05-05)"
   xmlns:inkscape="http://www.inkscape.org/namespaces/inkscape"
   xmlns:sodipodi="http://sodipodi.sourceforge.net/DTD/sodipodi-0.dtd"
   xmlns="http://www.w3.org/2000/svg"
   xmlns:svg="http://www.w3.org/2000/svg"><sodipodi:namedview
   id="namedview1"
   pagecolor="#ffffff"
   bordercolor="#111111"
   borderopacity="1"
   inkscape:showpageshadow="0"
   inkscape:pageopacity="0"
   inkscape:pagecheckerboard="1"
   inkscape:deskcolor="#d1d1d1"
   showgrid="true"
   inkscape:zoom="64"
   inkscape:cx="1.5703125"
   inkscape:cy="4.6953125"
   inkscape:window-width="1920"
   inkscape:window-height="1050"
   inkscape:window-x="0"
   inkscape:window-y="0"
   inkscape:window-maximized="1"
   inkscape:current-layer="g9"><inkscape:grid
     id="grid1"
     units="px"
     originx="-0.79373243"
     originy="-0.078573919"
     spacingx="1"
     spacingy="1"
     empcolor="#0099e5"
     empopacity="0.30196078"
     color="#0099e5"
     opacity="0.14901961"
     empspacing="5"
     enabled="true"
     visible="true" /></sodipodi:namedview>
  <defs
   id="defs1"><inkscape:path-effect
   effect="fillet_chamfer"
   id="path-effect4"
   is_visible="true"
   lpeversion="1"
   nodesatellites_param="F,0,0,1,0,0,0,1 @ F,0,0,1,0,0.2451349,0,1 @ F,0,0,1,0,0,0,1 @ F,0,0,1,0,0.2506408,0,1 @ F,0,0,1,0,0,0,1"
   radius="0"
   unit="px"
   method="auto"
   mode="F"
   chamfer_steps="1"
   flexible="false"
   use_knot_distance="true"
   apply_no_radius="true"
   apply_with_radius="true"
   only_selected="false"
   hide_knots="false" /><inkscape:path-effect
   effect="fillet_chamfer"
   id="path-effect1"
   is_visible="true"
   lpeversion="1"
   nodesatellites_param="F,0,0,1,0,0.89351705,0,1 @ F,0,0,1,0,0.87331971,0,1 @ F,0,0,1,0,1.8517394,0,1 @ F,0,0,1,0,0.8947357,0,1 @ F,0,0,1,0,0.89351705,0,1"
   radius="0"
   unit="px"
   method="auto"
   mode="F"
   chamfer_steps="1"
   flexible="false"
   use_knot_distance="true"
   apply_no_radius="true"
   apply_with_radius="true"
   only_selected="false"
   hide_knots="false" />
  </defs>
  
<g
   id="g9"
   transform="matrix(0.87897556,0,0,0.87897556,-0.28019626,-0.13395368)"><path
     style="opacity:1;fill:none;fill-opacity:1;stroke:currentColor;stroke-width:0.715541;stroke-linecap:round;stroke-linejoin:round;stroke-dasharray:none;stroke-opacity:1"
     d="m 10.109063,9.1087985 c 0,0 -0.9578671,-1.7414027 -1.8708789,-1.7438966 -0.9130119,-0.00249 -0.9735346,1.5153276 -0.9735346,1.5153276 0,0 0.3887091,-0.7675177 0.7957586,-0.6857069 0.4070495,0.081811 0.931207,1.0412586 0.931207,1.0412586"
     id="path3"
     sodipodi:nodetypes="czczc"
     transform="translate(-6.2770888,-6.8320726)" /><path
     style="fill:none;fill-opacity:1;stroke:currentColor;stroke-width:0.715541;stroke-linecap:round;stroke-linejoin:round;stroke-dasharray:none;stroke-opacity:1"
     d="m 10.670523,9.0861398 c 0,0 0.957867,-1.7414027 1.870879,-1.7438966 0.913012,-0.00249 0.973534,1.5153276 0.973534,1.5153276 0,0 -0.388709,-0.7675177 -0.795758,-0.6857069 -0.40705,0.081811 -0.931207,1.0412586 -0.931207,1.0412586"
     id="path3-7"
     sodipodi:nodetypes="czczc"
     transform="translate(-6.2770888,-6.8320726)" /><path
     style="opacity:1;fill:none;fill-opacity:1;stroke:currentColor;stroke-width:0.715541;stroke-linecap:round;stroke-linejoin:round;stroke-dasharray:none;stroke-opacity:1"
     d="m 8.5265611,9.7247004 0.024662,0.5524006 a 4.4130642,4.4130642 76.249868 0 0 0.4072575,1.664308 l 0.6693623,1.439122 a 0.82818843,0.82818843 179.15253 0 0 1.5118731,-0.02236 l 0.590638,-1.374811 a 4.6416852,4.6416852 102.33848 0 0 0.375474,-1.716539 l 0.0135,-0.5415049 A 0.87152191,0.87152191 45.713958 0 0 11.248075,8.8320725 H 9.3802269 A 0.85451618,0.85451618 133.72187 0 0 8.5265611,9.7247004 Z"
     id="path1"
     transform="matrix(0.87211724,0,0,0.87211724,-4.8752494,-5.347782)"
     sodipodi:nodetypes="cccccc" /><path
     style="opacity:1;fill:none;fill-opacity:1;stroke:currentColor;stroke-width:0.672539;stroke-linecap:round;stroke-linejoin:round;stroke-dasharray:none;stroke-opacity:1"
     d="M 2.7867525,2.5323851 C 1.7587846,2.3357169 0.58820229,3.2423431 0.65920854,3.3601301 0.71554668,3.4535855 1.8391807,3.6701005 2.4906832,3.450215"
     id="path2"
     sodipodi:nodetypes="csc" /><path
     style="fill:none;fill-opacity:1;stroke:currentColor;stroke-width:0.672539;stroke-linecap:round;stroke-linejoin:round;stroke-dasharray:none;stroke-opacity:1"
     d="M 5.4631056,2.5338728 C 6.4910735,2.3372046 7.6616558,3.2438308 7.5906495,3.3616177 7.5343118,3.4550732 6.4106774,3.6715882 5.7591749,3.4517027"
     id="path2-6"
     sodipodi:nodetypes="csc" /><path
     style="opacity:1;fill:none;fill-opacity:1;stroke:currentColor;stroke-width:0.453551;stroke-linecap:round;stroke-linejoin:round;stroke-dasharray:none;stroke-opacity:1"
     d="M 3.55234,5.4318565 4.1739712,7.0646648 4.8407119,5.402277"
     id="path9"
     sodipodi:nodetypes="ccc"
     transform="matrix(1.1376881,0,0,1.1376881,-0.58424396,0.06300489)" /></g></svg>
